<svg xmlns="http://www.w3.org/2000/svg" viewBox="0 0 96 96">
  <rect width="96" height="96" rx="18" fill="transparent"/>
  <g fill="none" stroke="#0f766e" stroke-width="3" stroke-linecap="round" stroke-linejoin="round">
    <line x1="48" y1="20" x2="48" y2="74"/>
    <path d="M30 34c6-8 14-8 18 0-4 8-12 8-18 0z"/>
    <path d="M66 34c-6-8-14-8-18 0 4 8 12 8 18 0z"/>
    <path d="M32 50c6-8 14-8 16 0-2 8-10 8-16 0z"/>
    <path d="M64 50c-6-8-14-8-16 0 2 8 10 8 16 0z"/>
    <path d="M42 20l6-8 6 8" stroke="#d97706"/>
  </g>
</svg>

