<svg width="64" height="64" viewBox="0 0 64 64" xmlns="http://www.w3.org/2000/svg" role="img" aria-label="Trivial Chem camembert icon">
  <rect width="64" height="64" rx="14" fill="#f4fbff"/>
  <g transform="translate(32 32)">
    <path d="M0 0 L0 -20 A20 20 0 0 1 14.14 -14.14 Z" fill="#FB4141"/>
    <path d="M0 0 L14.14 -14.14 A20 20 0 0 1 20 0 Z" fill="#5CB338"/>
    <path d="M0 0 L20 0 A20 20 0 0 1 14.14 14.14 Z" fill="#FB4141"/>
    <path d="M0 0 L14.14 14.14 A20 20 0 0 1 0 20 Z" fill="#5CB338"/>
    <path d="M0 0 L0 20 A20 20 0 0 1 -14.14 14.14 Z" fill="#FB4141"/>
    <path d="M0 0 L-14.14 14.14 A20 20 0 0 1 -20 0 Z" fill="#5CB338"/>
    <path d="M0 0 L-20 0 A20 20 0 0 1 -14.14 -14.14 Z" fill="#FB4141"/>
    <path d="M0 0 L-14.14 -14.14 A20 20 0 0 1 0 -20 Z" fill="#5CB338"/>

    <circle cx="0" cy="0" r="20" fill="none" stroke="#0f766e" stroke-width="1.8"/>
    <line x1="0" y1="0" x2="0" y2="-20" stroke="#ffffff" stroke-width="1.6"/>
    <line x1="0" y1="0" x2="14.14" y2="-14.14" stroke="#ffffff" stroke-width="1.6"/>
    <line x1="0" y1="0" x2="20" y2="0" stroke="#ffffff" stroke-width="1.6"/>
    <line x1="0" y1="0" x2="14.14" y2="14.14" stroke="#ffffff" stroke-width="1.6"/>
    <line x1="0" y1="0" x2="0" y2="20" stroke="#ffffff" stroke-width="1.6"/>
    <line x1="0" y1="0" x2="-14.14" y2="14.14" stroke="#ffffff" stroke-width="1.6"/>
    <line x1="0" y1="0" x2="-20" y2="0" stroke="#ffffff" stroke-width="1.6"/>
    <line x1="0" y1="0" x2="-14.14" y2="-14.14" stroke="#ffffff" stroke-width="1.6"/>
    <circle cx="0" cy="0" r="2.4" fill="#ffffff"/>
  </g>
</svg>
