<svg width="360" height="360" viewBox="0 0 360 360" fill="none" xmlns="http://www.w3.org/2000/svg">
  <rect width="360" height="360" fill="transparent"/>

  <g opacity="0.26" stroke="#0f766e" stroke-width="2.3" stroke-linecap="round" stroke-linejoin="round">
    <g id="pill">
      <rect x="0" y="0" width="54" height="24" rx="12"/>
      <line x1="27" y1="2" x2="27" y2="22"/>
    </g>

    <g id="cross">
      <line x1="0" y1="12" x2="24" y2="12"/>
      <line x1="12" y1="0" x2="12" y2="24"/>
    </g>

    <g id="flask">
      <path d="M8 2h16"/>
      <path d="M14 2v10L5 24h22L18 12V2"/>
      <path d="M9 19h14"/>
    </g>

    <g id="microscope">
      <path d="M8 24h18"/>
      <path d="M10 6h8l-2 4h-6z"/>
      <path d="M14 10v6"/>
      <path d="M10 18c0-3 2-5 5-5h5"/>
      <circle cx="20" cy="14" r="3"/>
    </g>
  </g>

  <g opacity="0.23" stroke="#d97706" stroke-width="2.1" stroke-linecap="round" stroke-linejoin="round">
    <use href="#pill" x="14" y="22"/>
    <use href="#cross" x="84" y="30"/>
    <use href="#flask" x="152" y="18"/>
    <use href="#microscope" x="222" y="28"/>
    <use href="#cross" x="302" y="16"/>

    <use href="#flask" x="26" y="90"/>
    <use href="#pill" x="92" y="98"/>
    <use href="#microscope" x="162" y="86"/>
    <use href="#cross" x="236" y="96"/>
    <use href="#pill" x="290" y="90"/>

    <use href="#cross" x="12" y="162"/>
    <use href="#microscope" x="76" y="154"/>
    <use href="#pill" x="146" y="164"/>
    <use href="#flask" x="214" y="156"/>
    <use href="#cross" x="292" y="166"/>

    <use href="#pill" x="30" y="232"/>
    <use href="#flask" x="100" y="226"/>
    <use href="#cross" x="166" y="238"/>
    <use href="#microscope" x="236" y="228"/>
    <use href="#pill" x="306" y="234"/>

    <use href="#microscope" x="16" y="300"/>
    <use href="#cross" x="88" y="306"/>
    <use href="#pill" x="158" y="300"/>
    <use href="#flask" x="226" y="306"/>
    <use href="#cross" x="300" y="296"/>
  </g>
</svg>
