<svg width="520" height="520" viewBox="0 0 520 520" fill="none" xmlns="http://www.w3.org/2000/svg">
  <rect width="520" height="520" fill="transparent"/>

  <g opacity="0.16" stroke="#0f766e" stroke-width="2.2" stroke-linecap="round" stroke-linejoin="round">
    <g id="pill">
      <rect x="0" y="0" width="54" height="24" rx="12"/>
      <line x1="27" y1="2" x2="27" y2="22"/>
    </g>

    <g id="cross">
      <line x1="0" y1="12" x2="24" y2="12"/>
      <line x1="12" y1="0" x2="12" y2="24"/>
    </g>

    <g id="flask">
      <path d="M8 2h16"/>
      <path d="M14 2v10L5 24h22L18 12V2"/>
      <path d="M9 19h14"/>
    </g>

    <g id="microscope">
      <path d="M8 24h18"/>
      <path d="M10 6h8l-2 4h-6z"/>
      <path d="M14 10v6"/>
      <path d="M10 18c0-3 2-5 5-5h5"/>
      <circle cx="20" cy="14" r="3"/>
    </g>
  </g>

  <g opacity="0.13" stroke="#d97706" stroke-width="2" stroke-linecap="round" stroke-linejoin="round">
    <use href="#pill" x="42" y="46"/>
    <use href="#cross" x="170" y="58"/>
    <use href="#flask" x="286" y="40"/>
    <use href="#microscope" x="404" y="56"/>

    <use href="#cross" x="72" y="168"/>
    <use href="#pill" x="186" y="178"/>
    <use href="#microscope" x="306" y="164"/>
    <use href="#flask" x="432" y="178"/>

    <use href="#flask" x="38" y="298"/>
    <use href="#microscope" x="162" y="296"/>
    <use href="#cross" x="292" y="304"/>
    <use href="#pill" x="398" y="294"/>

    <use href="#microscope" x="64" y="420"/>
    <use href="#pill" x="182" y="426"/>
    <use href="#flask" x="304" y="416"/>
    <use href="#cross" x="428" y="430"/>
  </g>
</svg>
